<?xml version="1.0" encoding="UTF-8"?>
<mxfile host="app.diagrams.net" agent="Mozilla/5.0 (Macintosh; Intel Mac OS X 10_15_7) AppleWebKit/537.36 (KHTML, like Gecko) Chrome/140.0.0.0 Safari/537.36" version="28.2.2">
  <diagram id="JM2MnFiSEGakKJMVpSvT" name="Контекстная диаграмма - Умный дом">
    <mxGraphModel dx="2432" dy="1400" grid="1" gridSize="10" guides="1" tooltips="1" connect="1" arrows="1" fold="1" page="1" pageScale="1" pageWidth="827" pageHeight="1169" math="0" shadow="0">
      <root>
        <mxCell id="0" />
        <mxCell id="1" parent="0" />
        <mxCell id="ABFyZpdGzGb16fEHIP5b-1" value="Собственник&#xa;[Person]&#xa;&#xa;Владелец недвижимости, использует мобильное приложение для управления умным домом" style="html=1;fontSize=11;dashed=0;whiteSpace=wrap;fillColor=#083F75;strokeColor=#06315C;fontColor=#ffffff;shape=mxgraph.c4.person2;align=center;points=[[0.5,0,0],[1,0.5,0],[1,0.75,0],[0.75,1,0],[0.5,1,0],[0.25,1,0],[0,0.75,0],[0,0.5,0]];resizable=0;" vertex="1" parent="1">
          <mxGeometry x="440" y="1100" width="200" height="180" as="geometry" />
        </mxCell>
        <mxCell id="ABFyZpdGzGb16fEHIP5b-2" value="Гость&#xa;[Person]&#xa;&#xa;Посетитель, который хочет попасть в дом через домофон" style="html=1;fontSize=11;dashed=0;whiteSpace=wrap;fillColor=#083F75;strokeColor=#06315C;fontColor=#ffffff;shape=mxgraph.c4.person2;align=center;points=[[0.5,0,0],[1,0.5,0],[1,0.75,0],[0.75,1,0],[0.5,1,0],[0.25,1,0],[0,0.75,0],[0,0.5,0]];resizable=0;" vertex="1" parent="1">
          <mxGeometry x="1220" y="980" width="200" height="180" as="geometry" />
        </mxCell>
        <mxCell id="ABFyZpdGzGb16fEHIP5b-3" value="Водитель&#xa;[Person]&#xa;&#xa;Водитель автомобиля, который хочет въехать на территорию через шлагбаум" style="html=1;fontSize=11;dashed=0;whiteSpace=wrap;fillColor=#083F75;strokeColor=#06315C;fontColor=#ffffff;shape=mxgraph.c4.person2;align=center;points=[[0.5,0,0],[1,0.5,0],[1,0.75,0],[0.75,1,0],[0.5,1,0],[0.25,1,0],[0,0.75,0],[0,0.5,0]];resizable=0;" vertex="1" parent="1">
          <mxGeometry x="1690" y="1440" width="200" height="180" as="geometry" />
        </mxCell>
        <mxCell id="ABFyZpdGzGb16fEHIP5b-4" value="PropDevelopment Smart Home&#xa;[Software System]&#xa;&#xa;Система управления умным домом для собственников недвижимости" style="rounded=1;whiteSpace=wrap;html=1;labelBackgroundColor=none;fillColor=#23A2D9;fontColor=#ffffff;align=center;arcSize=10;strokeColor=#0E7DAD;resizable=0;points=[[0.25,0,0],[0.5,0,0],[0.75,0,0],[1,0.25,0],[1,0.5,0],[1,0.75,0],[0.75,1,0],[0.5,1,0],[0.25,1,0],[0,0.75,0],[0,0.5,0],[0,0.25,0]];" vertex="1" parent="1">
          <mxGeometry x="800" y="1110" width="300" height="200" as="geometry" />
        </mxCell>
        <mxCell id="ABFyZpdGzGb16fEHIP5b-5" value="Партнер - Умный дом&#xa;[Software System]&#xa;&#xa;Внешняя платформа партнера, предоставляющая сервисы умного домофона и шлагбаума" style="rounded=1;whiteSpace=wrap;html=1;labelBackgroundColor=none;fillColor=#8C8496;fontColor=#ffffff;align=center;arcSize=10;strokeColor=#736782;resizable=0;points=[[0.25,0,0],[0.5,0,0],[0.75,0,0],[1,0.25,0],[1,0.5,0],[1,0.75,0],[0.75,1,0],[0.5,1,0],[0.25,1,0],[0,0.75,0],[0,0.5,0],[0,0.25,0]];" vertex="1" parent="1">
          <mxGeometry x="800" y="1420" width="300" height="200" as="geometry" />
        </mxCell>
        <mxCell id="ABFyZpdGzGb16fEHIP5b-6" value="Интеллектуальный домофон&#xa;[External Device]&#xa;&#xa;Устройство с видеокамерой, биометрическим сканером и возможностью удаленного управления" style="rounded=1;whiteSpace=wrap;html=1;labelBackgroundColor=none;fillColor=#FF6B6B;fontColor=#ffffff;align=center;arcSize=10;strokeColor=#E55555;resizable=0;points=[[0.25,0,0],[0.5,0,0],[0.75,0,0],[1,0.25,0],[1,0.5,0],[1,0.75,0],[0.75,1,0],[0.5,1,0],[0.25,1,0],[0,0.75,0],[0,0.5,0],[0,0.25,0]];" vertex="1" parent="1">
          <mxGeometry x="1220" y="1300" width="200" height="120" as="geometry" />
        </mxCell>
        <mxCell id="ABFyZpdGzGb16fEHIP5b-7" value="Интеллектуальный шлагбаум&#xa;[External Device]&#xa;&#xa;Устройство с камерой распознавания номеров и автоматическим управлением" style="rounded=1;whiteSpace=wrap;html=1;labelBackgroundColor=none;fillColor=#FF6B6B;fontColor=#ffffff;align=center;arcSize=10;strokeColor=#E55555;resizable=0;points=[[0.25,0,0],[0.5,0,0],[0.75,0,0],[1,0.25,0],[1,0.5,0],[1,0.75,0],[0.75,1,0],[0.5,1,0],[0.25,1,0],[0,0.75,0],[0,0.5,0],[0,0.25,0]];" vertex="1" parent="1">
          <mxGeometry x="1310" y="1510" width="200" height="120" as="geometry" />
        </mxCell>
        <mxCell id="ABFyZpdGzGb16fEHIP5b-8" style="edgeStyle=orthogonalEdgeStyle;rounded=0;orthogonalLoop=1;jettySize=auto;html=1;exitX=0.993;exitY=0.675;exitDx=0;exitDy=0;exitPerimeter=0;entryX=0;entryY=0.25;entryDx=0;entryDy=0;entryPerimeter=0;" edge="1" parent="1" source="ABFyZpdGzGb16fEHIP5b-1" target="ABFyZpdGzGb16fEHIP5b-4">
          <mxGeometry relative="1" as="geometry">
            <Array as="points">
              <mxPoint x="710" y="1222" />
              <mxPoint x="710" y="1160" />
            </Array>
          </mxGeometry>
        </mxCell>
        <mxCell id="ABFyZpdGzGb16fEHIP5b-9" value="Управляет доступом&#xa;Просматривает логи&#xa;[HTTPS/REST]" style="edgeLabel;html=1;align=center;verticalAlign=middle;resizable=0;points=[];" connectable="0" vertex="1" parent="ABFyZpdGzGb16fEHIP5b-8">
          <mxGeometry x="-0.1" y="-1" relative="1" as="geometry">
            <mxPoint as="offset" />
          </mxGeometry>
        </mxCell>
        <mxCell id="ABFyZpdGzGb16fEHIP5b-10" style="edgeStyle=orthogonalEdgeStyle;rounded=0;orthogonalLoop=1;jettySize=auto;html=1;exitX=0.5;exitY=1;exitDx=0;exitDy=0;exitPerimeter=0;" edge="1" parent="1" source="ABFyZpdGzGb16fEHIP5b-2" target="ABFyZpdGzGb16fEHIP5b-6">
          <mxGeometry relative="1" as="geometry" />
        </mxCell>
        <mxCell id="ABFyZpdGzGb16fEHIP5b-11" value="Звонит в дом&#xa;Проходит биометрию&#xa;[Локальная сеть]" style="edgeLabel;html=1;align=center;verticalAlign=middle;resizable=0;points=[];" connectable="0" vertex="1" parent="ABFyZpdGzGb16fEHIP5b-10">
          <mxGeometry x="-0.1" y="-1" relative="1" as="geometry">
            <mxPoint as="offset" />
          </mxGeometry>
        </mxCell>
        <mxCell id="ABFyZpdGzGb16fEHIP5b-12" style="edgeStyle=orthogonalEdgeStyle;rounded=0;orthogonalLoop=1;jettySize=auto;html=1;exitX=0;exitY=0.75;exitDx=0;exitDy=0;exitPerimeter=0;entryX=1;entryY=0.5;entryDx=0;entryDy=0;entryPerimeter=0;" edge="1" parent="1" source="ABFyZpdGzGb16fEHIP5b-3" target="ABFyZpdGzGb16fEHIP5b-7">
          <mxGeometry relative="1" as="geometry" />
        </mxCell>
        <mxCell id="ABFyZpdGzGb16fEHIP5b-13" value="Подъезжает к шлагбауму&#xa;Ожидает распознавания&#xa;[Локальная сеть]" style="edgeLabel;html=1;align=center;verticalAlign=middle;resizable=0;points=[];" connectable="0" vertex="1" parent="ABFyZpdGzGb16fEHIP5b-12">
          <mxGeometry x="-0.1" y="-1" relative="1" as="geometry">
            <mxPoint as="offset" />
          </mxGeometry>
        </mxCell>
        <mxCell id="ABFyZpdGzGb16fEHIP5b-14" style="edgeStyle=orthogonalEdgeStyle;rounded=0;orthogonalLoop=1;jettySize=auto;html=1;exitX=0.5;exitY=1;exitDx=0;exitDy=0;exitPerimeter=0;entryX=0.5;entryY=0;entryDx=0;entryDy=0;entryPerimeter=0;" edge="1" parent="1" source="ABFyZpdGzGb16fEHIP5b-4" target="ABFyZpdGzGb16fEHIP5b-5">
          <mxGeometry relative="1" as="geometry" />
        </mxCell>
        <mxCell id="ABFyZpdGzGb16fEHIP5b-15" value="Синхронизация данных&#xa;Управление устройствами&#xa;[HTTPS/REST]" style="edgeLabel;html=1;align=center;verticalAlign=middle;resizable=0;points=[];" connectable="0" vertex="1" parent="ABFyZpdGzGb16fEHIP5b-14">
          <mxGeometry x="-0.1" y="-1" relative="1" as="geometry">
            <mxPoint as="offset" />
          </mxGeometry>
        </mxCell>
        <mxCell id="ABFyZpdGzGb16fEHIP5b-16" style="edgeStyle=orthogonalEdgeStyle;rounded=0;orthogonalLoop=1;jettySize=auto;html=1;exitX=1;exitY=0.25;exitDx=0;exitDy=0;exitPerimeter=0;entryX=0.5;entryY=1;entryDx=0;entryDy=0;entryPerimeter=0;" edge="1" parent="1" source="ABFyZpdGzGb16fEHIP5b-5" target="ABFyZpdGzGb16fEHIP5b-6">
          <mxGeometry relative="1" as="geometry" />
        </mxCell>
        <mxCell id="ABFyZpdGzGb16fEHIP5b-17" value="Управление доступом&#xa;Получение видео&#xa;[HTTPS/MQTT]" style="edgeLabel;html=1;align=center;verticalAlign=middle;resizable=0;points=[];" connectable="0" vertex="1" parent="ABFyZpdGzGb16fEHIP5b-16">
          <mxGeometry x="-0.1" y="-1" relative="1" as="geometry">
            <mxPoint as="offset" />
          </mxGeometry>
        </mxCell>
        <mxCell id="ABFyZpdGzGb16fEHIP5b-18" style="edgeStyle=orthogonalEdgeStyle;rounded=0;orthogonalLoop=1;jettySize=auto;html=1;exitX=1;exitY=0.75;exitDx=0;exitDy=0;exitPerimeter=0;entryX=0;entryY=0.5;entryDx=0;entryDy=0;entryPerimeter=0;" edge="1" parent="1" source="ABFyZpdGzGb16fEHIP5b-5" target="ABFyZpdGzGb16fEHIP5b-7">
          <mxGeometry relative="1" as="geometry" />
        </mxCell>
        <mxCell id="ABFyZpdGzGb16fEHIP5b-19" value="Управление шлагбаумом&#xa;Распознавание номеров&#xa;[HTTPS/MQTT]" style="edgeLabel;html=1;align=center;verticalAlign=middle;resizable=0;points=[];" connectable="0" vertex="1" parent="ABFyZpdGzGb16fEHIP5b-18">
          <mxGeometry x="-0.1" y="-1" relative="1" as="geometry">
            <mxPoint as="offset" />
          </mxGeometry>
        </mxCell>
      </root>
    </mxGraphModel>
  </diagram>
</mxfile>
